<svg xmlns="http://www.w3.org/2000/svg" width="582.526" height="600.155"><path fill="#ffe817" d="M557.153 29.88C539.182 11.2 513.858.889 483.916.061 457.5-.66 432.871 5 412.723 16.457c-16.026 9.114-28.417 21.672-36.059 36.3l-41.281-3.549a27.881 27.881 0 0 0-24.671-27.056q-.438-.051-.876-.082l-70.767-5.059a27.9 27.9 0 0 0-30.315 24.548l-3.777 32.7q-3.273.042-6.327.167c-18.09.744-32.068 12.9-33.994 29.565a20.218 20.218 0 0 0-.126 2.879l.684 24.624c-24.575 4.055-46.89 11.144-66.537 21.153a175.257 175.257 0 0 0-57.535 46.32c-17.071 21.21-29.042 46.36-35.591 74.749a228.142 228.142 0 0 0-4 76.771l.008.074a228.642 228.642 0 0 0 .874 6.66c8.937 63.783 35.213 124.9 46.1 148.22l.752 1.653a744.048 744.048 0 0 0 1.74 3.878l1.19 2.626c.455 1 .9 1.977 1.352 2.949l1.473 3.181c.328.7.65 1.391.974 2.079l1.718 3.636c.646 1.356 1.269 2.65 1.88 3.915l.655 1.359q1.233 2.541 2.383 4.862l.485.973a784.984 784.984 0 0 0 1.711 3.425l4.454 8.683c.3.577.587 1.12.848 1.614l2.31 4.316.026.049.014.025.627 1.148.05.089.119.217.039.07.159.286a20.223 20.223 0 0 0 5.174 6.038c1.6 1.251 6.364 4.627 16.093 8.94 1.877.832 3.859 1.662 5.883 2.465q1.6.633 3.346 1.289c3.665 1.374 7.6 2.719 11.7 4 2.978.931 6.1 1.846 9.273 2.72A405.715 405.715 0 0 0 167.727 591c15.648 2.517 32.807 4.535 51 6 21.723 1.748 45.981 3.154 67.82 3.154 27.761 0 51.609-2.274 61.318-9.009a20.174 20.174 0 0 0 3.371-2.941c.145-.158 3.616-3.944 9.285-10.547a714.534 714.534 0 0 0 6.386-7.54 806.148 806.148 0 0 0 25.526-32.194q2.4-3.194 4.858-6.532c3.4-4.627 6.752-9.3 9.954-13.872 7.211-10.307 13.938-20.531 20-30.39a497.66 497.66 0 0 0 9.547-16.195 444.261 444.261 0 0 0 4.552-8.282 322.824 322.824 0 0 0 19.278-42.6A203.171 203.171 0 0 0 468.174 394c.375-1.752.749-3.534 1.118-5.308l.309-1.5q.558-2.706 1.1-5.461l.016-.083.22-1.135c.3-1.516.588-3.046.883-4.617l.342-1.842c.326-1.774.644-3.561.948-5.327l.332-1.972c.236-1.413.468-2.833.695-4.27l.214-1.368c.33-2.138.622-4.134.892-6.077l.188-1.413a363.218 363.218 0 0 0 .666-5.228l.375-3.26q.24-2.172.451-4.351l.279-3.047c.114-1.316.217-2.637.316-3.989l.087-1.164c.039-.56.074-1.121.108-1.683l.069-1.162c.072-1.21.138-2.422.194-3.628.017-.363.031-.726.045-1.088l.018-.443c.084-2.106.141-4.064.174-5.942v-.226c.006-.23.011-.46.015-.711.009-.653.011-1.307.011-1.961v-1.558c0-1.05-.008-2.1-.022-3.179-.008-.532-.019-1.063-.03-1.587l-.006-.252c-.017-.821-.034-1.641-.062-2.483l-.007-.2q-.058-1.712-.141-3.425-.011-.3-.026-.59a178.102 178.102 0 0 0-.2-3.182l-.057-.865a207.81 207.81 0 0 0-.217-2.758c-.046-.548-.1-1.095-.147-1.663q-.149-1.592-.32-3.191l-.149-1.321c-.089-.808-.179-1.615-.285-2.437-.014-.115-.031-.231-.048-.349-.265-2.03-.588-4.191-.989-6.6-.094-.562-.188-1.123-.282-1.655a180.391 180.391 0 0 0-.708-3.768l-.292-1.455c-.113-.564-.226-1.128-.357-1.733a43.167 43.167 0 0 0-.164-.712l-.015-.062c-.449-2.02-.949-4.07-1.53-6.278l-.088-.338c-.111-.423-.223-.846-.335-1.256-.4-1.462-.837-2.966-1.349-4.645l-.252-.827c-.139-.453-.278-.905-.434-1.391q-.147-.456-.3-.91l-.062-.18q-.8-2.424-1.712-4.916l-.555-1.478c-.144-.386-.287-.771-.439-1.161-.894-2.3-1.835-4.565-2.811-6.76a74.16 74.16 0 0 0-.438-.955l-.148-.318c-.771-1.69-1.6-3.415-2.463-5.133l-.28-.553-.09-.178-.158-.312a58.399 58.399 0 0 0-.515-1.011 147.451 147.451 0 0 0-3.663-6.576c-.2-.347-.416-.694-.628-1.04l-.218-.357a148.125 148.125 0 0 0-3.458-5.436c-.094-.146-.188-.29-.285-.435l-.124-.186a28.669 28.669 0 0 0-.5-.741 146.039 146.039 0 0 0-4.575-6.3c-.3-.389-.6-.777-.907-1.164l-.218-.277c-1.555-1.98-3.055-3.8-4.587-5.573l-.052-.061a37.41 37.41 0 0 0-.608-.714 149.937 149.937 0 0 0-5.567-5.988c-.459-.468-.925-.934-1.391-1.4a159.205 159.205 0 0 0-5.747-5.478l-.429-.4c-1.93-1.732-4.089-3.558-6.6-5.588-.5-.4-1-.807-1.508-1.208l-.07-.055-.263-.2a175.554 175.554 0 0 0-6.939-5.2c-.174-.122-.352-.245-.549-.377s-.375-.259-.565-.386l-.427-.293a188.083 188.083 0 0 0-6.181-4.1c-.6-.384-1.2-.767-1.825-1.153a207.15 207.15 0 0 0-7.847-4.649q-.246-.147-.5-.289a19.38 19.38 0 0 0-.725-.385l-.555-.3-1.347-.726a248.085 248.085 0 0 0-33.298-14.75l5.415-20.54a20.291 20.291 0 0 0 .533-2.831 33.421 33.421 0 0 0-1.27-13.794l9.258.525c5.009 16.653 14.966 32.308 29 45.274a120.329 120.329 0 0 0 68.906 30.907 120.625 120.625 0 0 0 9.208.631c29.941.83 55.8-8.068 74.772-25.725 18.016-16.764 28.337-40.451 29.064-66.7.725-26.245-8.272-50.467-25.333-68.201Z"/><path fill="#fff" d="m289.575 86.428 3.115-26.969 121.209 12.209-2.912 25.199-121.412-10.439z"/><path fill="#754c28" d="m299.529 67.956 105.747 10.651-1.14 9.873-105.926-9.107 1.319-11.417m-13.678-16.994-1.757 15.211-1.319 11.417-1.836 15.894 15.94 1.37 105.926 9.106 15.034 1.293 1.732-14.99 1.14-9.873 1.809-15.662-15.687-1.58L301.086 52.5l-15.235-1.535Z"/><path fill="#fff" d="m307.989 112.578-85.959-9.93 6.79-58.774a7.67 7.67 0 0 1 8.5-6.74l71.075 5.08a7.673 7.673 0 0 1 6.741 8.5Z"/><path fill="#754c28" d="M308 120.348a7.858 7.858 0 0 1-.9-.052l-85.959-9.93a7.769 7.769 0 0 1-6.826-8.609l6.79-58.774a15.441 15.441 0 0 1 16.91-13.583l70.934 5.07c.113.008.225.019.337.032a15.44 15.44 0 0 1 13.567 17.109l-7.147 61.864a7.77 7.77 0 0 1-7.706 6.873Zm-77.36-24.525 70.524 8.146 6.236-54.037-70.638-5.049a9.382 9.382 0 0 1-.241-.021Z"/><path fill="#fae5d7" d="M332.338 166.913 185.934 150l-1.212-43.695c.844-7.307 7.409-11.4 14.758-11.7 51.358-2.11 132.3 15.284 132.3 15.284 9.317 2.417 12.546 7.452 11.7 14.758Z"/><path fill="#e7bfa5" d="M325.075 113.521s-12.733-2.461-31.252-5.491c4.768 3.386 5.676 11.726 4.79 17.339-1.928 12.209-4.146 22.515-9.132 33.577l37 4.274 9.852-37.37c.733-6.35-3.826-11.025-11.258-12.329Z"/><path fill="#754c28" d="m338.134 175.4-159.779-18.455-1.415-50.98.064-.551c1.226-10.614 10.13-18.079 22.157-18.573 50.611-2.073 127.422 14 133.919 15.38a21.088 21.088 0 0 1 18.12 23.315l-.064.552Zm-144.621-32.344 133.028 15.368 9.256-35.107a5.549 5.549 0 0 0-4.909-5.712l-.373-.044-.367-.079c-.8-.171-80.579-17.164-130.349-15.116-.677.027-6.455.384-7.293 4.412Z"/><path fill="#fae5d7" d="M483.358 20.253c-51.577-1.427-94.167 25.578-95.313 67.017s39.586 81.618 91.162 83.044 81.94-31.351 83.086-72.79-27.359-75.845-78.935-77.271Z"/><path fill="#e7bfa5" d="M558.58 96.026c.544-16.432-3.262-31.725-11.015-44.331 4.721 43.719-23.219 95.516-97.639 86.919-15.076-1.742-37.32-11.187-49.491-18.1 13.3 27.646 43.2 49.012 78.667 49.787 48.998 1.066 78.088-32.328 79.478-74.275Z"/><path fill="#6bd174" d="M91.119 546.608s28.278 22.134 129.229 30.258 116.007-2.317 116.007-2.317 94.583-103.066 112.066-184.768S483.74 176.89 268.226 150.814 7.206 263.342 23.046 358.328s68.073 188.28 68.073 188.28Z"/><path fill="#53a360" d="M382.491 333.817c-6.444 51.427-39.882 101.52-104.772 129.4-63.81 27.415-232.26 14.44-256.083-114.886 8.838 73.352 44.355 146.621 45.643 149.524 13.163 29.673 23.84 48.753 23.84 48.753s28.278 22.134 129.229 30.258 116.007-2.317 116.007-2.317 94.583-103.066 112.066-184.769c13.945-65.171 28.1-161.822-76.119-211.5-3.429-1.635-51.155-21.359-78.462-24.514 0-.001 103.86 58.642 88.651 180.051Z"/><path fill="#2a9a5c" d="M91.119 546.608s28.278 22.134 129.229 30.258 116.007-2.317 116.007-2.317 94.583-103.066 112.066-184.768c13.415-62.694 27.038-154.526-64.721-205.644 0 0 86.769 137.277-13.867 270.854-76.006 100.884-153.341 91.152-226.756 76.775-60.124-11.775-85.5-56.749-85.5-56.749 17.186 42.377 33.542 71.591 33.542 71.591Z"/><path fill="#fff" d="M146.124 218.483c-9.879 8.656-29.038 18.405-39.136 26.984C67.4 279.1 82.911 332.874 74.122 331.829c-7.6-.9-34.408-50.548-3.216-105.943 12.341-21.917 43.474-44.4 65.44-41.714 5.324.652 14.228 1.595 16.746 11.714 2.435 9.79-2.437 18.627-6.968 22.597Z" opacity=".2"/><path fill="#fff" d="M124.887 219.882c-6.019 5.18-17.048 11.1-22.576 16.157-27.394 25.09-31.738 61.713-35.773 61.833-1.578.047-5.2-42.22 19.7-74.842 7.852-10.292 21.215-24.387 33.2-24.655 5.033-.112 9.483 2.812 10.393 7.8 1.069 5.848-2.184 11.331-4.944 13.707Z"/><ellipse cx="80.186" cy="370.129" fill="#fff" opacity=".2" rx="14.934" ry="16.979" transform="rotate(-83.41 80.187 370.13)"/><ellipse cx="76.83" cy="367.195" fill="#fff" rx="9.421" ry="10.711" transform="rotate(-83.411 76.83 367.195)"/><path fill="#b34e9c" d="M349.707 443.527a2.059 2.059 0 1 0-.471 4.073 2.059 2.059 0 1 0 .471-4.073Z"/><path fill="#fff" d="M445.9 60.9c-3.832 2.9-7.772 5.668-11.657 8.5L410.6 86.62a51.218 51.218 0 0 1 22.528-36.956c3.566-2.35 7.813-4.724 12.16-4.988 3.879-.236 8.62 2.142 8.12 6.64-.456 4.069-4.477 7.291-7.508 9.584Z"/><path fill="#754c28" d="M482.443 178.128c-1.144 0-2.292-.016-3.45-.048a107.3 107.3 0 0 1-70.442-28.607c-18.584-17.362-28.889-40.113-28.272-62.418.616-22.266 12.028-42.079 32.135-55.787 18.86-12.859 44.128-19.537 71.158-18.781 26.614.736 48.96 9.73 64.623 26.011 14.733 15.313 22.5 36.352 21.864 59.241s-9.549 43.466-25.105 57.942c-15.819 14.719-37.377 22.447-62.511 22.447zm-2.985-150.16c-22.369 0-42.95 5.677-58.291 16.138-11.232 7.657-24.748 21.4-25.356 43.378-1.071 38.727 38 73.8 83.611 75.065 43.823 1.234 73.993-25.006 75.106-65.239s-27.579-68.076-71.385-69.292q-1.849-.051-3.685-.05zM286.1 587.707c-16.686 0-38.328-.84-66.371-3.1-102.1-8.217-132.163-30.921-133.393-31.884l-1.228-.962-.762-1.361c-.542-.967-13.434-24.089-28.462-59.263-13.888-32.5-32.187-81.708-40.5-131.535A215.339 215.339 0 0 1 17.772 276c7.276-31.185 21.387-57.9 41.937-79.39 20.952-21.912 48.155-37.717 80.855-46.974 36.284-10.272 79.55-12.471 128.6-6.537 43.278 5.236 79.857 15.07 108.72 29.228 26.2 12.852 46.8 29.629 61.246 49.868 17.13 24.006 25.847 52.455 26.648 86.973.676 29.133-4.552 57.919-9.755 82.236-7.476 34.937-28.966 77.305-63.875 125.928a735.982 735.982 0 0 1-50.07 62.468l-.584.637-.712.494c-2.073 1.439-12.63 6.776-54.682 6.776zM97.023 541.213c6.245 3.851 38.385 21.024 123.948 27.91 83.4 6.713 106.365.609 110.68-.957 10.2-11.379 93.3-105.828 109.174-180.011 11.7-54.672 18.056-111.523-14.348-156.933-27.693-38.808-81.25-63.266-159.184-72.7-89.017-10.769-155.079 5.656-196.354 48.824-34.76 36.355-49.8 92.317-40.23 149.7 14.309 85.807 59.447 171.486 66.314 184.167zM231.481 56.134a13.975 13.975 0 0 0-4.093.134l-2.427 21a13.92 13.92 0 0 0 3.955 1.064c6.9.8 13.072-3.526 13.78-9.658s-4.313-11.743-11.215-12.54z"/></svg>